<?xml version="1.0" encoding="utf-8"?>
<!-- Generator: Adobe Illustrator 15.0.0, SVG Export Plug-In . SVG Version: 6.00 Build 0)  -->
<!DOCTYPE svg PUBLIC "-//W3C//DTD SVG 1.1//EN" "http://www.w3.org/Graphics/SVG/1.1/DTD/svg11.dtd">
<svg version="1.1" id="Ebene_1" xmlns="http://www.w3.org/2000/svg" xmlns:xlink="http://www.w3.org/1999/xlink" x="0px" y="0px"
	 width="2743.149px" height="1895.621px" viewBox="0 0 2743.149 1895.621" enable-background="new 0 0 2743.149 1895.621"
	 xml:space="preserve">
<g>
	
		<line fill="none" stroke="#000000" stroke-width="1.08" stroke-linecap="round" stroke-linejoin="round" stroke-miterlimit="10" x1="583.232" y1="1437.177" x2="578.672" y2="1643.217"/>
	
		<line fill="none" stroke="#000000" stroke-width="1.08" stroke-linecap="round" stroke-linejoin="round" stroke-miterlimit="10" x1="612.992" y1="1630.617" x2="617.312" y2="1436.697"/>
	
		<line fill="none" stroke="#000000" stroke-width="1.08" stroke-linecap="round" stroke-linejoin="round" stroke-miterlimit="10" x1="411.872" y1="1425.537" x2="571.832" y2="1425.537"/>
	
		<line fill="none" stroke="#000000" stroke-width="1.08" stroke-linecap="round" stroke-linejoin="round" stroke-miterlimit="10" x1="628.592" y1="1425.537" x2="741.632" y2="1425.537"/>
	
		<line fill="none" stroke="#000000" stroke-width="1.08" stroke-linecap="round" stroke-linejoin="round" stroke-miterlimit="10" x1="753.032" y1="1436.937" x2="753.032" y2="1605.896"/>
	
		<line fill="none" stroke="#000000" stroke-width="1.08" stroke-linecap="round" stroke-linejoin="round" stroke-miterlimit="10" x1="1595.912" y1="1425.537" x2="1486.232" y2="1425.537"/>
	
		<line fill="none" stroke="#000000" stroke-width="1.08" stroke-linecap="round" stroke-linejoin="round" stroke-miterlimit="10" x1="400.712" y1="1439.337" x2="451.352" y2="1667.696"/>
	
		<line fill="none" stroke="#000000" stroke-width="1.08" stroke-linecap="round" stroke-linejoin="round" stroke-miterlimit="10" x1="1596.992" y1="1435.617" x2="1488.632" y2="1458.656"/>
	
		<line fill="none" stroke="#000000" stroke-width="1.08" stroke-linecap="round" stroke-linejoin="round" stroke-miterlimit="10" x1="1474.832" y1="1447.617" x2="1474.832" y2="1436.937"/>
	
		<line fill="none" stroke="#000000" stroke-width="1.08" stroke-linecap="round" stroke-linejoin="round" stroke-miterlimit="10" x1="2169.752" y1="1366.257" x2="2167.592" y2="1345.617"/>
	
		<line fill="none" stroke="#000000" stroke-width="1.08" stroke-linecap="round" stroke-linejoin="round" stroke-miterlimit="10" x1="413.432" y1="1340.576" x2="2161.952" y2="1340.576"/>
	
		<line fill="none" stroke="#000000" stroke-width="1.08" stroke-linecap="round" stroke-linejoin="round" stroke-miterlimit="10" x1="464.792" y1="1676.337" x2="569.672" y2="1654.017"/>
	
		<line fill="none" stroke="#000000" stroke-width="1.08" stroke-linecap="round" stroke-linejoin="round" stroke-miterlimit="10" x1="229.952" y1="1061.697" x2="215.192" y2="994.857"/>
	
		<line fill="none" stroke="#000000" stroke-width="1.08" stroke-linecap="round" stroke-linejoin="round" stroke-miterlimit="10" x1="313.472" y1="887.697" x2="413.432" y2="1340.576"/>
	
		<line fill="none" stroke="#000000" stroke-width="1.08" stroke-linecap="round" stroke-linejoin="round" stroke-miterlimit="10" x1="244.952" y1="1065.057" x2="254.912" y2="1052.337"/>
	
		<line fill="none" stroke="#000000" stroke-width="1.08" stroke-linecap="round" stroke-linejoin="round" stroke-miterlimit="10" x1="248.792" y1="1099.377" x2="273.872" y2="1067.097"/>
	
		<line fill="none" stroke="#000000" stroke-width="1.08" stroke-linecap="round" stroke-linejoin="round" stroke-miterlimit="10" x1="395.432" y1="1769.337" x2="1739.672" y2="1483.617"/>
	
		<line fill="none" stroke="#000000" stroke-width="1.08" stroke-linecap="round" stroke-linejoin="round" stroke-miterlimit="10" x1="1798.712" y1="1471.017" x2="2147.552" y2="1396.856"/>
	
		<line fill="none" stroke="#000000" stroke-width="1.08" stroke-linecap="round" stroke-linejoin="round" stroke-miterlimit="10" x1="1440.872" y1="1436.937" x2="1440.872" y2="1459.617"/>
	
		<line fill="none" stroke="#000000" stroke-width="1.08" stroke-linecap="round" stroke-linejoin="round" stroke-miterlimit="10" x1="1431.872" y1="1470.776" x2="1316.672" y2="1495.257"/>
	
		<line fill="none" stroke="#000000" stroke-width="1.08" stroke-linecap="round" stroke-linejoin="round" stroke-miterlimit="10" x1="1302.872" y1="1484.217" x2="1302.872" y2="1436.937"/>
	
		<line fill="none" stroke="#000000" stroke-width="1.08" stroke-linecap="round" stroke-linejoin="round" stroke-miterlimit="10" x1="263.672" y1="902.097" x2="219.152" y2="971.816"/>
	
		<line fill="none" stroke="#000000" stroke-width="1.08" stroke-linecap="round" stroke-linejoin="round" stroke-miterlimit="10" x1="385.352" y1="1762.856" x2="384.152" y2="1757.337"/>
	
		<line fill="none" stroke="#000000" stroke-width="1.08" stroke-linecap="round" stroke-linejoin="round" stroke-miterlimit="10" x1="1268.912" y1="1436.937" x2="1268.912" y2="1496.217"/>
	
		<line fill="none" stroke="#000000" stroke-width="1.08" stroke-linecap="round" stroke-linejoin="round" stroke-miterlimit="10" x1="374.192" y1="1712.217" x2="243.512" y2="1122.896"/>
	
		<line fill="none" stroke="#000000" stroke-width="1.08" stroke-linecap="round" stroke-linejoin="round" stroke-miterlimit="10" x1="1130.912" y1="1520.697" x2="1130.912" y2="1436.937"/>
	
		<line fill="none" stroke="#000000" stroke-width="1.08" stroke-linecap="round" stroke-linejoin="round" stroke-miterlimit="10" x1="626.672" y1="1641.896" x2="744.032" y2="1616.937"/>
	
		<line fill="none" stroke="#000000" stroke-width="1.08" stroke-linecap="round" stroke-linejoin="round" stroke-miterlimit="10" x1="1257.512" y1="1425.537" x2="1142.312" y2="1425.537"/>
	
		<line fill="none" stroke="#000000" stroke-width="1.08" stroke-linecap="round" stroke-linejoin="round" stroke-miterlimit="10" x1="1085.552" y1="1425.537" x2="970.352" y2="1425.537"/>
	
		<line fill="none" stroke="#000000" stroke-width="1.08" stroke-linecap="round" stroke-linejoin="round" stroke-miterlimit="10" x1="1096.952" y1="1436.937" x2="1096.952" y2="1532.816"/>
	
		<line fill="none" stroke="#000000" stroke-width="1.08" stroke-linecap="round" stroke-linejoin="round" stroke-miterlimit="10" x1="282.752" y1="888.656" x2="306.752" y2="883.377"/>
	
		<line fill="none" stroke="#000000" stroke-width="1.08" stroke-linecap="round" stroke-linejoin="round" stroke-miterlimit="10" x1="1087.952" y1="1543.856" x2="972.632" y2="1568.337"/>
	
		<line fill="none" stroke="#000000" stroke-width="1.08" stroke-linecap="round" stroke-linejoin="round" stroke-miterlimit="10" x1="1429.472" y1="1425.537" x2="1314.272" y2="1425.537"/>
	
		<line fill="none" stroke="#000000" stroke-width="1.08" stroke-linecap="round" stroke-linejoin="round" stroke-miterlimit="10" x1="786.992" y1="1593.776" x2="786.992" y2="1436.937"/>
	
		<line fill="none" stroke="#000000" stroke-width="1.08" stroke-linecap="round" stroke-linejoin="round" stroke-miterlimit="10" x1="1259.912" y1="1507.377" x2="1144.592" y2="1531.856"/>
	
		<line fill="none" stroke="#000000" stroke-width="1.08" stroke-linecap="round" stroke-linejoin="round" stroke-miterlimit="10" x1="958.952" y1="1557.297" x2="958.952" y2="1436.937"/>
	
		<line fill="none" stroke="#000000" stroke-width="1.08" stroke-linecap="round" stroke-linejoin="round" stroke-miterlimit="10" x1="913.592" y1="1425.537" x2="798.392" y2="1425.537"/>
	
		<line fill="none" stroke="#000000" stroke-width="1.08" stroke-linecap="round" stroke-linejoin="round" stroke-miterlimit="10" x1="800.672" y1="1604.937" x2="915.992" y2="1580.457"/>
	
		<line fill="none" stroke="#000000" stroke-width="1.08" stroke-linecap="round" stroke-linejoin="round" stroke-miterlimit="10" x1="924.992" y1="1436.937" x2="924.992" y2="1569.297"/>
	
		<path fill="none" stroke="#000000" stroke-width="1.08" stroke-linecap="round" stroke-linejoin="round" stroke-miterlimit="10" d="
		M411.872,1425.537c-6.232-0.015-11.309,5.062-11.4,11.399c0.091,0.749,0.181,1.572,0.24,2.4"/>
	
		<path fill="none" stroke="#000000" stroke-width="1.08" stroke-linecap="round" stroke-linejoin="round" stroke-miterlimit="10" d="
		M583.232,1437.177c0.194-6.325-4.769-11.513-11.04-11.64c-0.073-0.014-0.157-0.015-0.36,0"/>
	
		<path fill="none" stroke="#000000" stroke-width="1.08" stroke-linecap="round" stroke-linejoin="round" stroke-miterlimit="10" d="
		M451.352,1667.696c1.432,6.008,7.425,9.862,13.44,8.641"/>
	
		<path fill="none" stroke="#000000" stroke-width="1.08" stroke-linecap="round" stroke-linejoin="round" stroke-miterlimit="10" d="
		M628.592,1425.537c-6.099-0.015-11.133,4.91-11.28,11.16"/>
	
		<path fill="none" stroke="#000000" stroke-width="1.08" stroke-linecap="round" stroke-linejoin="round" stroke-miterlimit="10" d="
		M753.032,1436.937c0.043-6.338-5.033-11.414-11.4-11.399"/>
	
		<path fill="none" stroke="#000000" stroke-width="1.08" stroke-linecap="round" stroke-linejoin="round" stroke-miterlimit="10" d="
		M1596.992,1435.617c2.797-0.588,4.556-3.297,3.96-6c-0.491-2.41-2.571-4.095-5.04-4.08"/>
	
		<path fill="none" stroke="#000000" stroke-width="1.08" stroke-linecap="round" stroke-linejoin="round" stroke-miterlimit="10" d="
		M2167.592,1345.617c-0.201-2.941-2.634-5.133-5.64-5.041"/>
	
		<path fill="none" stroke="#000000" stroke-width="1.08" stroke-linecap="round" stroke-linejoin="round" stroke-miterlimit="10" d="
		M313.472,887.697c-0.598-3.153-3.623-5.085-6.72-4.32c0.038-0.09,0.036-0.09,0,0"/>
	
		<path fill="none" stroke="#000000" stroke-width="1.08" stroke-linecap="round" stroke-linejoin="round" stroke-miterlimit="10" d="
		M282.752,888.656c-7.811,1.69-14.708,6.519-19.08,13.44"/>
	
		<path fill="none" stroke="#000000" stroke-width="1.08" stroke-linecap="round" stroke-linejoin="round" stroke-miterlimit="10" d="
		M229.952,1061.697c1.079,4.504,5.62,7.396,10.2,6.479c1.938-0.527,3.663-1.618,4.8-3.12"/>
	
		<path fill="none" stroke="#000000" stroke-width="1.08" stroke-linecap="round" stroke-linejoin="round" stroke-miterlimit="10" d="
		M273.872,1067.097c4.147-5.282,3.199-12.851-2.16-16.92c-5.147-4.097-12.715-3.148-16.8,2.16"/>
	
		<path fill="none" stroke="#000000" stroke-width="1.08" stroke-linecap="round" stroke-linejoin="round" stroke-miterlimit="10" d="
		M374.192,1712.217c1.68,7.458,8.983,12.267,16.44,10.92"/>
	
		<path fill="none" stroke="#000000" stroke-width="1.08" stroke-linecap="round" stroke-linejoin="round" stroke-miterlimit="10" d="
		M388.232,1750.617c9.21-2.572,18.351-5.248,27.36-8.04"/>
	
		<path fill="none" stroke="#000000" stroke-width="1.08" stroke-linecap="round" stroke-linejoin="round" stroke-miterlimit="10" d="
		M1486.232,1425.537c-6.216-0.015-11.293,5.062-11.4,11.399"/>
	
		<path fill="none" stroke="#000000" stroke-width="1.08" stroke-linecap="round" stroke-linejoin="round" stroke-miterlimit="10" d="
		M388.232,1750.617c-2.906,0.708-4.69,3.658-4.08,6.72"/>
	
		<path fill="none" stroke="#000000" stroke-width="1.08" stroke-linecap="round" stroke-linejoin="round" stroke-miterlimit="10" d="
		M390.632,1723.137c6.708-1.35,13.326-2.713,19.92-4.08"/>
	
		<path fill="none" stroke="#000000" stroke-width="1.08" stroke-linecap="round" stroke-linejoin="round" stroke-miterlimit="10" d="
		M1087.952,1543.856c5.304-1.16,9.048-5.784,9-11.04"/>
	
		<path fill="none" stroke="#000000" stroke-width="1.08" stroke-linecap="round" stroke-linejoin="round" stroke-miterlimit="10" d="
		M385.352,1762.856c1.083,4.477,5.578,7.367,10.08,6.48"/>
	
		<path fill="none" stroke="#000000" stroke-width="1.08" stroke-linecap="round" stroke-linejoin="round" stroke-miterlimit="10" d="
		M1440.872,1436.937c0.053-6.338-5.023-11.414-11.4-11.399"/>
	
		<path fill="none" stroke="#000000" stroke-width="1.08" stroke-linecap="round" stroke-linejoin="round" stroke-miterlimit="10" d="
		M1781.792,1454.816c0.587-3.137,1.097-6.21,1.56-9.239"/>
	
		<path fill="none" stroke="#000000" stroke-width="1.08" stroke-linecap="round" stroke-linejoin="round" stroke-miterlimit="10" d="
		M1781.792,1454.816c-1.237,7.651,3.962,14.966,11.64,16.32c1.802,0.248,3.603,0.21,5.28-0.12"/>
	
		<path fill="none" stroke="#000000" stroke-width="1.08" stroke-linecap="round" stroke-linejoin="round" stroke-miterlimit="10" d="
		M1431.872,1470.776c5.309-1.184,9.053-5.808,9-11.159"/>
	
		<path fill="none" stroke="#000000" stroke-width="1.08" stroke-linecap="round" stroke-linejoin="round" stroke-miterlimit="10" d="
		M415.592,1742.577c6.582-1.453,10.736-7.851,9.24-14.28c-1.27-6.586-7.667-10.74-14.28-9.24c0.07-0.109,0.037-0.103,0,0"/>
	
		<path fill="none" stroke="#000000" stroke-width="1.08" stroke-linecap="round" stroke-linejoin="round" stroke-miterlimit="10" d="
		M744.032,1616.937c5.299-1.137,9.043-5.761,9-11.04"/>
	
		<path fill="none" stroke="#000000" stroke-width="1.08" stroke-linecap="round" stroke-linejoin="round" stroke-miterlimit="10" d="
		M1739.672,1483.617c5.165-1.176,9.246-4.943,10.68-9.841"/>
	
		<path fill="none" stroke="#000000" stroke-width="1.08" stroke-linecap="round" stroke-linejoin="round" stroke-miterlimit="10" d="
		M1302.872,1484.217c0.105,6.162,5.182,11.238,11.4,11.28c0.836-0.042,1.626-0.125,2.399-0.24"/>
	
		<path fill="none" stroke="#000000" stroke-width="1.08" stroke-linecap="round" stroke-linejoin="round" stroke-miterlimit="10" d="
		M1096.952,1436.937c0.048-6.338-5.028-11.414-11.4-11.399"/>
	
		<path fill="none" stroke="#000000" stroke-width="1.08" stroke-linecap="round" stroke-linejoin="round" stroke-miterlimit="10" d="
		M1314.272,1425.537c-6.219-0.015-11.295,5.062-11.4,11.399"/>
	
		<path fill="none" stroke="#000000" stroke-width="1.08" stroke-linecap="round" stroke-linejoin="round" stroke-miterlimit="10" d="
		M1259.912,1507.377c5.306-1.232,9.051-5.856,9-11.16"/>
	
		<path fill="none" stroke="#000000" stroke-width="1.08" stroke-linecap="round" stroke-linejoin="round" stroke-miterlimit="10" d="
		M248.792,1099.377c-5.094,6.592-7.035,15.217-5.28,23.52"/>
	
		<path fill="none" stroke="#000000" stroke-width="1.08" stroke-linecap="round" stroke-linejoin="round" stroke-miterlimit="10" d="
		M219.152,971.816c-4.244,6.758-5.707,15.049-3.96,23.041"/>
	
		<path fill="none" stroke="#000000" stroke-width="1.08" stroke-linecap="round" stroke-linejoin="round" stroke-miterlimit="10" d="
		M1130.912,1520.697c0.103,6.233,5.18,11.31,11.4,11.399c0.833-0.09,1.624-0.173,2.28-0.24"/>
	
		<path fill="none" stroke="#000000" stroke-width="1.08" stroke-linecap="round" stroke-linejoin="round" stroke-miterlimit="10" d="
		M958.952,1557.297c0.101,6.186,5.177,11.262,11.4,11.28c0.832-0.019,1.622-0.102,2.28-0.24"/>
	
		<path fill="none" stroke="#000000" stroke-width="1.08" stroke-linecap="round" stroke-linejoin="round" stroke-miterlimit="10" d="
		M1474.832,1447.617c0.107,6.21,5.185,11.286,11.4,11.399c0.838-0.113,1.628-0.196,2.399-0.36"/>
	
		<path fill="none" stroke="#000000" stroke-width="1.08" stroke-linecap="round" stroke-linejoin="round" stroke-miterlimit="10" d="
		M798.392,1425.537c-6.225-0.015-11.302,5.062-11.4,11.399"/>
	
		<path fill="none" stroke="#000000" stroke-width="1.08" stroke-linecap="round" stroke-linejoin="round" stroke-miterlimit="10" d="
		M612.992,1630.617c-0.103,6.163,4.86,11.351,11.04,11.52c0.957-0.011,1.832-0.094,2.64-0.24"/>
	
		<path fill="none" stroke="#000000" stroke-width="1.08" stroke-linecap="round" stroke-linejoin="round" stroke-miterlimit="10" d="
		M970.352,1425.537c-6.223-0.015-11.299,5.062-11.4,11.399"/>
	
		<path fill="none" stroke="#000000" stroke-width="1.08" stroke-linecap="round" stroke-linejoin="round" stroke-miterlimit="10" d="
		M1142.312,1425.537c-6.22-0.015-11.297,5.062-11.4,11.399"/>
	
		<path fill="none" stroke="#000000" stroke-width="1.08" stroke-linecap="round" stroke-linejoin="round" stroke-miterlimit="10" d="
		M2147.552,1396.856c14.2-3.032,23.823-16.277,22.2-30.6"/>
	
		<path fill="none" stroke="#000000" stroke-width="1.08" stroke-linecap="round" stroke-linejoin="round" stroke-miterlimit="10" d="
		M569.672,1654.017c5.22-1.139,8.938-5.627,9-10.8"/>
	
		<path fill="none" stroke="#000000" stroke-width="1.08" stroke-linecap="round" stroke-linejoin="round" stroke-miterlimit="10" d="
		M915.992,1580.457c5.301-1.209,9.045-5.833,9-11.16"/>
	
		<path fill="none" stroke="#000000" stroke-width="1.08" stroke-linecap="round" stroke-linejoin="round" stroke-miterlimit="10" d="
		M1750.352,1473.776c3.623-12.099,7.053-24.163,10.32-36.239"/>
	
		<path fill="none" stroke="#000000" stroke-width="1.08" stroke-linecap="round" stroke-linejoin="round" stroke-miterlimit="10" d="
		M924.992,1436.937c0.045-6.338-5.031-11.414-11.4-11.399"/>
	
		<path fill="none" stroke="#000000" stroke-width="1.08" stroke-linecap="round" stroke-linejoin="round" stroke-miterlimit="10" d="
		M1783.352,1445.577c2.036-6.391-1.488-13.155-7.92-15.12c-5.951-1.934-12.43,1.16-14.76,7.08"/>
	
		<path fill="none" stroke="#000000" stroke-width="1.08" stroke-linecap="round" stroke-linejoin="round" stroke-miterlimit="10" d="
		M786.992,1593.776c0.098,6.258,5.175,11.334,11.4,11.4c0.829-0.066,1.619-0.149,2.28-0.24"/>
	
		<path fill="none" stroke="#000000" stroke-width="1.08" stroke-linecap="round" stroke-linejoin="round" stroke-miterlimit="10" d="
		M1268.912,1436.937c0.051-6.338-5.026-11.414-11.4-11.399"/>
	
		<path fill="none" stroke="#000000" stroke-width="1.08" stroke-linecap="round" stroke-linejoin="round" stroke-miterlimit="10" d="
		M957.032,1366.617c0.099,3.86-3.074,7.033-7.08,7.08c-3.821-0.047-6.994-3.22-7.08-7.08c0.086-3.967,3.259-7.14,7.08-7.08
		C953.958,1359.478,957.131,1362.65,957.032,1366.617"/>
	
		<path fill="none" stroke="#000000" stroke-width="1.08" stroke-linecap="round" stroke-linejoin="round" stroke-miterlimit="10" d="
		M1240.472,1366.617c0.117,3.86-3.056,7.033-7.079,7.08c-3.804-0.047-6.977-3.22-7.08-7.08c0.104-3.967,3.276-7.14,7.08-7.08
		C1237.416,1359.478,1240.589,1362.65,1240.472,1366.617"/>
	
		<path fill="none" stroke="#000000" stroke-width="1.08" stroke-linecap="round" stroke-linejoin="round" stroke-miterlimit="10" d="
		M1524.032,1366.617c0.016,3.86-3.157,7.033-7.08,7.08c-3.905-0.047-7.077-3.22-7.08-7.08c0.003-3.967,3.175-7.14,7.08-7.08
		C1520.875,1359.478,1524.048,1362.65,1524.032,1366.617"/>
	
		<path fill="none" stroke="#000000" stroke-width="1.08" stroke-linecap="round" stroke-linejoin="round" stroke-miterlimit="10" d="
		M1807.473,1366.617c0.033,3.86-3.14,7.033-7.08,7.08c-3.887-0.047-7.06-3.22-7.08-7.08c0.021-3.967,3.193-7.14,7.08-7.08
		C1804.333,1359.478,1807.506,1362.65,1807.473,1366.617"/>
	
		<path fill="none" stroke="#000000" stroke-width="1.08" stroke-linecap="round" stroke-linejoin="round" stroke-miterlimit="10" d="
		M673.592,1366.617c0.081,3.86-3.092,7.033-7.08,7.08c-3.84-0.047-7.012-3.22-7.08-7.08c0.068-3.967,3.24-7.14,7.08-7.08
		C670.5,1359.478,673.673,1362.65,673.592,1366.617"/>
	
		<path fill="none" stroke="#000000" stroke-width="1.08" stroke-linecap="round" stroke-linejoin="round" stroke-miterlimit="10" d="
		M404.312,1366.617c0.087,3.86-3.086,7.033-7.08,7.08c-3.833-0.047-7.006-3.22-7.08-7.08c0.074-3.967,3.247-7.14,7.08-7.08
		C401.226,1359.478,404.399,1362.65,404.312,1366.617"/>
	
		<path fill="none" stroke="#000000" stroke-width="1.08" stroke-linecap="round" stroke-linejoin="round" stroke-miterlimit="10" d="
		M357.992,1156.496c0.029,3.827-3.144,7-7.08,7.08c-3.891-0.08-7.063-3.253-7.08-7.08c0.017-4,3.189-7.173,7.08-7.079
		C354.849,1149.323,358.021,1152.496,357.992,1156.496"/>
	
		<path fill="none" stroke="#000000" stroke-width="1.08" stroke-linecap="round" stroke-linejoin="round" stroke-miterlimit="10" d="
		M310.952,943.496c0.082,3.909-3.091,7.082-7.08,7.201c-3.838-0.119-7.011-3.292-7.08-7.201c0.069-3.918,3.242-7.091,7.08-7.079
		C307.861,936.405,311.034,939.578,310.952,943.496"/>
</g>
<g>
	
		<line fill="none" stroke="#000000" stroke-width="1.08" stroke-linecap="round" stroke-linejoin="round" stroke-miterlimit="10" x1="871.563" y1="781.816" x2="867.003" y2="987.856"/>
	
		<line fill="none" stroke="#000000" stroke-width="1.08" stroke-linecap="round" stroke-linejoin="round" stroke-miterlimit="10" x1="901.324" y1="975.257" x2="905.644" y2="781.337"/>
	
		<line fill="none" stroke="#000000" stroke-width="1.08" stroke-linecap="round" stroke-linejoin="round" stroke-miterlimit="10" x1="700.204" y1="770.177" x2="860.164" y2="770.177"/>
	
		<line fill="none" stroke="#000000" stroke-width="1.08" stroke-linecap="round" stroke-linejoin="round" stroke-miterlimit="10" x1="916.923" y1="770.177" x2="1029.963" y2="770.177"/>
	
		<line fill="none" stroke="#000000" stroke-width="1.08" stroke-linecap="round" stroke-linejoin="round" stroke-miterlimit="10" x1="1041.364" y1="781.576" x2="1041.364" y2="950.536"/>
	
		<line fill="none" stroke="#000000" stroke-width="1.08" stroke-linecap="round" stroke-linejoin="round" stroke-miterlimit="10" x1="1884.244" y1="770.177" x2="1774.564" y2="770.177"/>
	
		<line fill="none" stroke="#000000" stroke-width="1.08" stroke-linecap="round" stroke-linejoin="round" stroke-miterlimit="10" x1="689.043" y1="783.977" x2="739.684" y2="1012.336"/>
	
		<line fill="none" stroke="#000000" stroke-width="1.08" stroke-linecap="round" stroke-linejoin="round" stroke-miterlimit="10" x1="1885.324" y1="780.257" x2="1776.963" y2="803.296"/>
	
		<line fill="none" stroke="#000000" stroke-width="1.08" stroke-linecap="round" stroke-linejoin="round" stroke-miterlimit="10" x1="1763.164" y1="792.257" x2="1763.164" y2="781.576"/>
	
		<line fill="none" stroke="#000000" stroke-width="1.08" stroke-linecap="round" stroke-linejoin="round" stroke-miterlimit="10" x1="2458.084" y1="710.896" x2="2455.924" y2="690.257"/>
	
		<line fill="none" stroke="#000000" stroke-width="1.08" stroke-linecap="round" stroke-linejoin="round" stroke-miterlimit="10" x1="701.764" y1="685.216" x2="2450.283" y2="685.216"/>
	
		<line fill="none" stroke="#000000" stroke-width="1.08" stroke-linecap="round" stroke-linejoin="round" stroke-miterlimit="10" x1="753.124" y1="1020.977" x2="858.003" y2="998.656"/>
	
		<line fill="none" stroke="#000000" stroke-width="1.08" stroke-linecap="round" stroke-linejoin="round" stroke-miterlimit="10" x1="518.284" y1="406.337" x2="503.523" y2="339.497"/>
	
		<line fill="none" stroke="#000000" stroke-width="1.08" stroke-linecap="round" stroke-linejoin="round" stroke-miterlimit="10" x1="601.804" y1="232.337" x2="701.764" y2="685.216"/>
	
		<line fill="none" stroke="#000000" stroke-width="1.08" stroke-linecap="round" stroke-linejoin="round" stroke-miterlimit="10" x1="533.284" y1="409.696" x2="543.244" y2="396.977"/>
	
		<line fill="none" stroke="#000000" stroke-width="1.08" stroke-linecap="round" stroke-linejoin="round" stroke-miterlimit="10" x1="537.124" y1="444.017" x2="562.204" y2="411.736"/>
	
		<line fill="none" stroke="#000000" stroke-width="1.08" stroke-linecap="round" stroke-linejoin="round" stroke-miterlimit="10" x1="683.764" y1="1113.977" x2="2028.004" y2="828.257"/>
	
		<line fill="none" stroke="#000000" stroke-width="1.08" stroke-linecap="round" stroke-linejoin="round" stroke-miterlimit="10" x1="2087.043" y1="815.656" x2="2435.883" y2="741.496"/>
	
		<line fill="none" stroke="#000000" stroke-width="1.08" stroke-linecap="round" stroke-linejoin="round" stroke-miterlimit="10" x1="1729.203" y1="781.576" x2="1729.203" y2="804.257"/>
	
		<line fill="none" stroke="#000000" stroke-width="1.08" stroke-linecap="round" stroke-linejoin="round" stroke-miterlimit="10" x1="1720.203" y1="815.416" x2="1605.003" y2="839.896"/>
	
		<line fill="none" stroke="#000000" stroke-width="1.08" stroke-linecap="round" stroke-linejoin="round" stroke-miterlimit="10" x1="1591.204" y1="828.856" x2="1591.204" y2="781.576"/>
	
		<line fill="none" stroke="#000000" stroke-width="1.08" stroke-linecap="round" stroke-linejoin="round" stroke-miterlimit="10" x1="552.003" y1="246.736" x2="507.484" y2="316.456"/>
	
		<line fill="none" stroke="#000000" stroke-width="1.08" stroke-linecap="round" stroke-linejoin="round" stroke-miterlimit="10" x1="673.684" y1="1107.496" x2="672.484" y2="1101.977"/>
	
		<line fill="none" stroke="#000000" stroke-width="1.08" stroke-linecap="round" stroke-linejoin="round" stroke-miterlimit="10" x1="1557.244" y1="781.576" x2="1557.244" y2="840.856"/>
	
		<line fill="none" stroke="#000000" stroke-width="1.08" stroke-linecap="round" stroke-linejoin="round" stroke-miterlimit="10" x1="662.523" y1="1056.856" x2="531.844" y2="467.536"/>
	
		<line fill="none" stroke="#000000" stroke-width="1.08" stroke-linecap="round" stroke-linejoin="round" stroke-miterlimit="10" x1="1419.244" y1="865.337" x2="1419.244" y2="781.576"/>
	
		<line fill="none" stroke="#000000" stroke-width="1.08" stroke-linecap="round" stroke-linejoin="round" stroke-miterlimit="10" x1="915.003" y1="986.536" x2="1032.364" y2="961.576"/>
	
		<line fill="none" stroke="#000000" stroke-width="1.08" stroke-linecap="round" stroke-linejoin="round" stroke-miterlimit="10" x1="1545.843" y1="770.177" x2="1430.644" y2="770.177"/>
	
		<line fill="none" stroke="#000000" stroke-width="1.08" stroke-linecap="round" stroke-linejoin="round" stroke-miterlimit="10" x1="1373.884" y1="770.177" x2="1258.684" y2="770.177"/>
	
		<line fill="none" stroke="#000000" stroke-width="1.08" stroke-linecap="round" stroke-linejoin="round" stroke-miterlimit="10" x1="1385.284" y1="781.576" x2="1385.284" y2="877.456"/>
	
		<line fill="none" stroke="#000000" stroke-width="1.08" stroke-linecap="round" stroke-linejoin="round" stroke-miterlimit="10" x1="571.083" y1="233.296" x2="595.083" y2="228.017"/>
	
		<line fill="none" stroke="#000000" stroke-width="1.08" stroke-linecap="round" stroke-linejoin="round" stroke-miterlimit="10" x1="1376.284" y1="888.496" x2="1260.963" y2="912.977"/>
	
		<line fill="none" stroke="#000000" stroke-width="1.08" stroke-linecap="round" stroke-linejoin="round" stroke-miterlimit="10" x1="1717.803" y1="770.177" x2="1602.604" y2="770.177"/>
	
		<line fill="none" stroke="#000000" stroke-width="1.08" stroke-linecap="round" stroke-linejoin="round" stroke-miterlimit="10" x1="1075.324" y1="938.416" x2="1075.324" y2="781.576"/>
	
		<line fill="none" stroke="#000000" stroke-width="1.08" stroke-linecap="round" stroke-linejoin="round" stroke-miterlimit="10" x1="1548.244" y1="852.017" x2="1432.923" y2="876.496"/>
	
		<line fill="none" stroke="#000000" stroke-width="1.08" stroke-linecap="round" stroke-linejoin="round" stroke-miterlimit="10" x1="1247.284" y1="901.937" x2="1247.284" y2="781.576"/>
	
		<line fill="none" stroke="#000000" stroke-width="1.08" stroke-linecap="round" stroke-linejoin="round" stroke-miterlimit="10" x1="1201.923" y1="770.177" x2="1086.724" y2="770.177"/>
	
		<line fill="none" stroke="#000000" stroke-width="1.08" stroke-linecap="round" stroke-linejoin="round" stroke-miterlimit="10" x1="1089.003" y1="949.576" x2="1204.324" y2="925.097"/>
	
		<line fill="none" stroke="#000000" stroke-width="1.08" stroke-linecap="round" stroke-linejoin="round" stroke-miterlimit="10" x1="1213.324" y1="781.576" x2="1213.324" y2="913.937"/>
	
		<path fill="none" stroke="#000000" stroke-width="1.08" stroke-linecap="round" stroke-linejoin="round" stroke-miterlimit="10" d="
		M700.204,770.177c-6.232-0.015-11.309,5.062-11.4,11.399c0.091,0.749,0.181,1.572,0.24,2.4"/>
	
		<path fill="none" stroke="#000000" stroke-width="1.08" stroke-linecap="round" stroke-linejoin="round" stroke-miterlimit="10" d="
		M871.563,781.816c0.194-6.325-4.769-11.513-11.04-11.64c-0.073-0.014-0.157-0.015-0.36,0"/>
	
		<path fill="none" stroke="#000000" stroke-width="1.08" stroke-linecap="round" stroke-linejoin="round" stroke-miterlimit="10" d="
		M739.684,1012.336c1.432,6.008,7.425,9.862,13.44,8.641"/>
	
		<path fill="none" stroke="#000000" stroke-width="1.08" stroke-linecap="round" stroke-linejoin="round" stroke-miterlimit="10" d="
		M916.923,770.177c-6.099-0.015-11.133,4.91-11.28,11.16"/>
	
		<path fill="none" stroke="#000000" stroke-width="1.08" stroke-linecap="round" stroke-linejoin="round" stroke-miterlimit="10" d="
		M1041.364,781.576c0.043-6.338-5.033-11.414-11.4-11.399"/>
	
		<path fill="none" stroke="#000000" stroke-width="1.08" stroke-linecap="round" stroke-linejoin="round" stroke-miterlimit="10" d="
		M1885.324,780.257c2.797-0.588,4.555-3.297,3.959-6c-0.49-2.41-2.57-4.095-5.039-4.08"/>
	
		<path fill="none" stroke="#000000" stroke-width="1.08" stroke-linecap="round" stroke-linejoin="round" stroke-miterlimit="10" d="
		M2455.924,690.257c-0.201-2.941-2.635-5.133-5.641-5.041"/>
	
		<path fill="none" stroke="#000000" stroke-width="1.08" stroke-linecap="round" stroke-linejoin="round" stroke-miterlimit="10" d="
		M601.804,232.337c-0.598-3.153-3.623-5.085-6.72-4.32c0.038-0.09,0.036-0.09,0,0"/>
	
		<path fill="none" stroke="#000000" stroke-width="1.08" stroke-linecap="round" stroke-linejoin="round" stroke-miterlimit="10" d="
		M571.083,233.296c-7.811,1.69-14.708,6.519-19.08,13.44"/>
	
		<path fill="none" stroke="#000000" stroke-width="1.08" stroke-linecap="round" stroke-linejoin="round" stroke-miterlimit="10" d="
		M518.284,406.337c1.079,4.504,5.62,7.396,10.2,6.479c1.938-0.527,3.663-1.618,4.8-3.12"/>
	
		<path fill="none" stroke="#000000" stroke-width="1.08" stroke-linecap="round" stroke-linejoin="round" stroke-miterlimit="10" d="
		M562.204,411.736c4.147-5.282,3.199-12.851-2.16-16.92c-5.147-4.097-12.715-3.148-16.8,2.16"/>
	
		<path fill="none" stroke="#000000" stroke-width="1.08" stroke-linecap="round" stroke-linejoin="round" stroke-miterlimit="10" d="
		M662.523,1056.856c1.68,7.458,8.983,12.267,16.44,10.92"/>
	
		<path fill="none" stroke="#000000" stroke-width="1.08" stroke-linecap="round" stroke-linejoin="round" stroke-miterlimit="10" d="
		M676.563,1095.257c9.21-2.572,18.351-5.248,27.36-8.04"/>
	
		<path fill="none" stroke="#000000" stroke-width="1.08" stroke-linecap="round" stroke-linejoin="round" stroke-miterlimit="10" d="
		M1774.564,770.177c-6.217-0.015-11.293,5.062-11.4,11.399"/>
	
		<path fill="none" stroke="#000000" stroke-width="1.08" stroke-linecap="round" stroke-linejoin="round" stroke-miterlimit="10" d="
		M676.563,1095.257c-2.906,0.708-4.69,3.658-4.08,6.72"/>
	
		<path fill="none" stroke="#000000" stroke-width="1.08" stroke-linecap="round" stroke-linejoin="round" stroke-miterlimit="10" d="
		M678.963,1067.776c6.708-1.35,13.326-2.713,19.92-4.08"/>
	
		<path fill="none" stroke="#000000" stroke-width="1.08" stroke-linecap="round" stroke-linejoin="round" stroke-miterlimit="10" d="
		M1376.284,888.496c5.304-1.16,9.048-5.784,9-11.04"/>
	
		<path fill="none" stroke="#000000" stroke-width="1.08" stroke-linecap="round" stroke-linejoin="round" stroke-miterlimit="10" d="
		M673.684,1107.496c1.083,4.477,5.578,7.367,10.08,6.48"/>
	
		<path fill="none" stroke="#000000" stroke-width="1.08" stroke-linecap="round" stroke-linejoin="round" stroke-miterlimit="10" d="
		M1729.203,781.576c0.053-6.338-5.023-11.414-11.4-11.399"/>
	
		<path fill="none" stroke="#000000" stroke-width="1.08" stroke-linecap="round" stroke-linejoin="round" stroke-miterlimit="10" d="
		M2070.123,799.456c0.588-3.137,1.098-6.21,1.561-9.239"/>
	
		<path fill="none" stroke="#000000" stroke-width="1.08" stroke-linecap="round" stroke-linejoin="round" stroke-miterlimit="10" d="
		M2070.123,799.456c-1.236,7.651,3.963,14.966,11.641,16.32c1.801,0.248,3.602,0.21,5.279-0.12"/>
	
		<path fill="none" stroke="#000000" stroke-width="1.08" stroke-linecap="round" stroke-linejoin="round" stroke-miterlimit="10" d="
		M1720.203,815.416c5.309-1.184,9.053-5.808,9-11.159"/>
	
		<path fill="none" stroke="#000000" stroke-width="1.08" stroke-linecap="round" stroke-linejoin="round" stroke-miterlimit="10" d="
		M703.924,1087.217c6.582-1.453,10.736-7.851,9.24-14.28c-1.27-6.586-7.667-10.74-14.28-9.24c0.07-0.109,0.037-0.103,0,0"/>
	
		<path fill="none" stroke="#000000" stroke-width="1.08" stroke-linecap="round" stroke-linejoin="round" stroke-miterlimit="10" d="
		M1032.364,961.576c5.299-1.137,9.043-5.761,9-11.04"/>
	
		<path fill="none" stroke="#000000" stroke-width="1.08" stroke-linecap="round" stroke-linejoin="round" stroke-miterlimit="10" d="
		M2028.004,828.257c5.164-1.176,9.246-4.943,10.68-9.841"/>
	
		<path fill="none" stroke="#000000" stroke-width="1.08" stroke-linecap="round" stroke-linejoin="round" stroke-miterlimit="10" d="
		M1591.204,828.856c0.105,6.162,5.182,11.238,11.4,11.28c0.836-0.042,1.626-0.125,2.399-0.24"/>
	
		<path fill="none" stroke="#000000" stroke-width="1.08" stroke-linecap="round" stroke-linejoin="round" stroke-miterlimit="10" d="
		M1385.284,781.576c0.048-6.338-5.028-11.414-11.4-11.399"/>
	
		<path fill="none" stroke="#000000" stroke-width="1.08" stroke-linecap="round" stroke-linejoin="round" stroke-miterlimit="10" d="
		M1602.604,770.177c-6.219-0.015-11.295,5.062-11.4,11.399"/>
	
		<path fill="none" stroke="#000000" stroke-width="1.08" stroke-linecap="round" stroke-linejoin="round" stroke-miterlimit="10" d="
		M1548.244,852.017c5.306-1.232,9.051-5.856,9-11.16"/>
	
		<path fill="none" stroke="#000000" stroke-width="1.08" stroke-linecap="round" stroke-linejoin="round" stroke-miterlimit="10" d="
		M537.124,444.017c-5.094,6.592-7.035,15.217-5.28,23.52"/>
	
		<path fill="none" stroke="#000000" stroke-width="1.08" stroke-linecap="round" stroke-linejoin="round" stroke-miterlimit="10" d="
		M507.484,316.456c-4.244,6.758-5.707,15.049-3.96,23.041"/>
	
		<path fill="none" stroke="#000000" stroke-width="1.08" stroke-linecap="round" stroke-linejoin="round" stroke-miterlimit="10" d="
		M1419.244,865.337c0.103,6.233,5.18,11.31,11.4,11.399c0.833-0.09,1.624-0.173,2.28-0.24"/>
	
		<path fill="none" stroke="#000000" stroke-width="1.08" stroke-linecap="round" stroke-linejoin="round" stroke-miterlimit="10" d="
		M1247.284,901.937c0.101,6.186,5.177,11.262,11.4,11.28c0.832-0.019,1.622-0.102,2.28-0.24"/>
	
		<path fill="none" stroke="#000000" stroke-width="1.08" stroke-linecap="round" stroke-linejoin="round" stroke-miterlimit="10" d="
		M1763.164,792.257c0.107,6.21,5.184,11.286,11.4,11.399c0.838-0.113,1.627-0.196,2.398-0.36"/>
	
		<path fill="none" stroke="#000000" stroke-width="1.08" stroke-linecap="round" stroke-linejoin="round" stroke-miterlimit="10" d="
		M1086.724,770.177c-6.225-0.015-11.302,5.062-11.4,11.399"/>
	
		<path fill="none" stroke="#000000" stroke-width="1.08" stroke-linecap="round" stroke-linejoin="round" stroke-miterlimit="10" d="
		M901.324,975.257c-0.103,6.163,4.86,11.351,11.04,11.52c0.957-0.011,1.832-0.094,2.64-0.24"/>
	
		<path fill="none" stroke="#000000" stroke-width="1.08" stroke-linecap="round" stroke-linejoin="round" stroke-miterlimit="10" d="
		M1258.684,770.177c-6.223-0.015-11.299,5.062-11.4,11.399"/>
	
		<path fill="none" stroke="#000000" stroke-width="1.08" stroke-linecap="round" stroke-linejoin="round" stroke-miterlimit="10" d="
		M1430.644,770.177c-6.22-0.015-11.297,5.062-11.4,11.399"/>
	
		<path fill="none" stroke="#000000" stroke-width="1.08" stroke-linecap="round" stroke-linejoin="round" stroke-miterlimit="10" d="
		M2435.883,741.496c14.201-3.032,23.824-16.277,22.201-30.6"/>
	
		<path fill="none" stroke="#000000" stroke-width="1.08" stroke-linecap="round" stroke-linejoin="round" stroke-miterlimit="10" d="
		M858.003,998.656c5.22-1.139,8.938-5.627,9-10.8"/>
	
		<path fill="none" stroke="#000000" stroke-width="1.08" stroke-linecap="round" stroke-linejoin="round" stroke-miterlimit="10" d="
		M1204.324,925.097c5.301-1.209,9.045-5.833,9-11.16"/>
	
		<path fill="none" stroke="#000000" stroke-width="1.08" stroke-linecap="round" stroke-linejoin="round" stroke-miterlimit="10" d="
		M2038.684,818.416c3.623-12.099,7.053-24.163,10.32-36.239"/>
	
		<path fill="none" stroke="#000000" stroke-width="1.08" stroke-linecap="round" stroke-linejoin="round" stroke-miterlimit="10" d="
		M1213.324,781.576c0.045-6.338-5.031-11.414-11.4-11.399"/>
	
		<path fill="none" stroke="#000000" stroke-width="1.08" stroke-linecap="round" stroke-linejoin="round" stroke-miterlimit="10" d="
		M2071.684,790.217c2.035-6.391-1.488-13.155-7.92-15.12c-5.951-1.934-12.43,1.16-14.76,7.08"/>
	
		<path fill="none" stroke="#000000" stroke-width="1.08" stroke-linecap="round" stroke-linejoin="round" stroke-miterlimit="10" d="
		M1075.324,938.416c0.098,6.258,5.175,11.334,11.4,11.4c0.829-0.066,1.619-0.149,2.28-0.24"/>
	
		<path fill="none" stroke="#000000" stroke-width="1.08" stroke-linecap="round" stroke-linejoin="round" stroke-miterlimit="10" d="
		M1557.244,781.576c0.051-6.338-5.026-11.414-11.4-11.399"/>
	
		<path fill="none" stroke="#000000" stroke-width="1.08" stroke-linecap="round" stroke-linejoin="round" stroke-miterlimit="10" d="
		M1245.364,711.257c0.099,3.86-3.074,7.033-7.08,7.08c-3.821-0.047-6.994-3.22-7.08-7.08c0.086-3.967,3.259-7.14,7.08-7.08
		C1242.29,704.117,1245.462,707.29,1245.364,711.257"/>
	
		<path fill="none" stroke="#000000" stroke-width="1.08" stroke-linecap="round" stroke-linejoin="round" stroke-miterlimit="10" d="
		M1528.803,711.257c0.117,3.86-3.056,7.033-7.079,7.08c-3.804-0.047-6.977-3.22-7.08-7.08c0.104-3.967,3.276-7.14,7.08-7.08
		C1525.748,704.117,1528.92,707.29,1528.803,711.257"/>
	
		<path fill="none" stroke="#000000" stroke-width="1.08" stroke-linecap="round" stroke-linejoin="round" stroke-miterlimit="10" d="
		M1812.363,711.257c0.016,3.86-3.156,7.033-7.08,7.08c-3.904-0.047-7.076-3.22-7.08-7.08c0.004-3.967,3.176-7.14,7.08-7.08
		C1809.207,704.117,1812.379,707.29,1812.363,711.257"/>
	
		<path fill="none" stroke="#000000" stroke-width="1.08" stroke-linecap="round" stroke-linejoin="round" stroke-miterlimit="10" d="
		M2095.805,711.257c0.033,3.86-3.141,7.033-7.08,7.08c-3.887-0.047-7.061-3.22-7.08-7.08c0.02-3.967,3.193-7.14,7.08-7.08
		C2092.664,704.117,2095.838,707.29,2095.805,711.257"/>
	
		<path fill="none" stroke="#000000" stroke-width="1.08" stroke-linecap="round" stroke-linejoin="round" stroke-miterlimit="10" d="
		M961.923,711.257c0.081,3.86-3.092,7.033-7.08,7.08c-3.84-0.047-7.012-3.22-7.08-7.08c0.068-3.967,3.24-7.14,7.08-7.08
		C958.832,704.117,962.004,707.29,961.923,711.257"/>
	
		<path fill="none" stroke="#000000" stroke-width="1.08" stroke-linecap="round" stroke-linejoin="round" stroke-miterlimit="10" d="
		M692.644,711.257c0.087,3.86-3.086,7.033-7.08,7.08c-3.833-0.047-7.006-3.22-7.08-7.08c0.074-3.967,3.247-7.14,7.08-7.08
		C689.558,704.117,692.73,707.29,692.644,711.257"/>
	
		<path fill="none" stroke="#000000" stroke-width="1.08" stroke-linecap="round" stroke-linejoin="round" stroke-miterlimit="10" d="
		M646.324,501.136c0.029,3.827-3.144,7-7.08,7.08c-3.891-0.08-7.063-3.253-7.08-7.08c0.017-4,3.189-7.173,7.08-7.079
		C643.18,493.963,646.353,497.136,646.324,501.136"/>
	
		<path fill="none" stroke="#000000" stroke-width="1.08" stroke-linecap="round" stroke-linejoin="round" stroke-miterlimit="10" d="
		M599.284,288.136c0.082,3.909-3.091,7.082-7.08,7.201c-3.838-0.119-7.011-3.292-7.08-7.201c0.069-3.918,3.242-7.091,7.08-7.079
		C596.193,281.045,599.366,284.218,599.284,288.136"/>
</g>
</svg>
