<?xml version="1.0" encoding="utf-8"?>
<!-- Generator: Adobe Illustrator 15.0.0, SVG Export Plug-In . SVG Version: 6.00 Build 0)  -->
<!DOCTYPE svg PUBLIC "-//W3C//DTD SVG 1.1//EN" "http://www.w3.org/Graphics/SVG/1.1/DTD/svg11.dtd">
<svg version="1.1" id="Ebene_1" xmlns="http://www.w3.org/2000/svg" xmlns:xlink="http://www.w3.org/1999/xlink" x="0px" y="0px"
	 width="4320px" height="2072px" viewBox="0 0 4320 2072" enable-background="new 0 0 4320 2072" xml:space="preserve">
<g>
	<path fill="none" stroke="#010202" stroke-width="2" stroke-linecap="round" stroke-linejoin="round" stroke-miterlimit="10" d="
		M2378.951,241.804c0-2.304-0.915-4.514-2.545-6.143l-1.27-1.27c-1.63-1.629-3.84-2.545-6.144-2.545H759.551
		c-0.156,0.001-0.311,0.023-0.463,0.055v-0.055H308.351c-30.017,0-54.351,24.334-54.351,54.351v65.051
		c0,30.017,24.334,54.351,54.351,54.351h450.737v-0.055c0.153,0.031,0.307,0.054,0.463,0.055h1609.442
		c2.304,0,4.514-0.916,6.144-2.544l1.27-1.271c1.63-1.629,2.545-3.839,2.545-6.143V241.804z"/>
	<g>
		
			<rect x="1890.354" y="304.975" fill="none" stroke="#010202" stroke-width="2" stroke-linecap="round" stroke-linejoin="round" stroke-miterlimit="10" width="127.559" height="27.495"/>
		
			<rect x="2113.383" y="304.975" fill="none" stroke="#010202" stroke-width="2" stroke-linecap="round" stroke-linejoin="round" stroke-miterlimit="10" width="127.559" height="27.495"/>
		
			<rect x="329.144" y="304.975" fill="none" stroke="#010202" stroke-width="2" stroke-linecap="round" stroke-linejoin="round" stroke-miterlimit="10" width="127.56" height="27.495"/>
		
			<rect x="552.174" y="304.975" fill="none" stroke="#010202" stroke-width="2" stroke-linecap="round" stroke-linejoin="round" stroke-miterlimit="10" width="127.559" height="27.495"/>
		
			<rect x="775.204" y="304.975" fill="none" stroke="#010202" stroke-width="2" stroke-linecap="round" stroke-linejoin="round" stroke-miterlimit="10" width="127.559" height="27.495"/>
		
			<rect x="998.234" y="304.975" fill="none" stroke="#010202" stroke-width="2" stroke-linecap="round" stroke-linejoin="round" stroke-miterlimit="10" width="127.56" height="27.495"/>
		
			<rect x="1221.264" y="304.975" fill="none" stroke="#010202" stroke-width="2" stroke-linecap="round" stroke-linejoin="round" stroke-miterlimit="10" width="127.559" height="27.495"/>
		
			<rect x="1444.294" y="304.975" fill="none" stroke="#010202" stroke-width="2" stroke-linecap="round" stroke-linejoin="round" stroke-miterlimit="10" width="127.559" height="27.495"/>
		
			<rect x="1667.324" y="304.975" fill="none" stroke="#010202" stroke-width="2" stroke-linecap="round" stroke-linejoin="round" stroke-miterlimit="10" width="127.559" height="27.495"/>
	</g>
</g>
<g>
	<path fill="none" stroke="#010202" stroke-width="2" stroke-linecap="round" stroke-linejoin="round" stroke-miterlimit="10" d="
		M2378.951,429.73c0-2.304-0.915-4.514-2.545-6.143l-1.27-1.271c-1.63-1.629-3.84-2.544-6.144-2.544H759.551
		c-0.156,0.001-0.311,0.023-0.463,0.055v-0.055H308.351c-30.017,0-54.351,24.334-54.351,54.351v65.051
		c0,30.017,24.334,54.351,54.351,54.351h450.737v-0.055c0.153,0.031,0.307,0.054,0.463,0.055h1609.442
		c2.304,0,4.514-0.916,6.144-2.544l1.27-1.271c1.63-1.629,2.545-3.839,2.545-6.143V429.73z"/>
	<g>
		
			<rect x="1890.354" y="492.901" fill="none" stroke="#010202" stroke-width="2" stroke-linecap="round" stroke-linejoin="round" stroke-miterlimit="10" width="127.559" height="27.495"/>
		
			<rect x="2113.383" y="492.901" fill="none" stroke="#010202" stroke-width="2" stroke-linecap="round" stroke-linejoin="round" stroke-miterlimit="10" width="127.559" height="27.495"/>
		
			<rect x="329.145" y="492.901" fill="none" stroke="#010202" stroke-width="2" stroke-linecap="round" stroke-linejoin="round" stroke-miterlimit="10" width="127.56" height="27.495"/>
		
			<rect x="552.175" y="492.901" fill="none" stroke="#010202" stroke-width="2" stroke-linecap="round" stroke-linejoin="round" stroke-miterlimit="10" width="127.559" height="27.495"/>
		
			<rect x="775.204" y="492.901" fill="none" stroke="#010202" stroke-width="2" stroke-linecap="round" stroke-linejoin="round" stroke-miterlimit="10" width="127.559" height="27.495"/>
		
			<rect x="998.234" y="492.901" fill="none" stroke="#010202" stroke-width="2" stroke-linecap="round" stroke-linejoin="round" stroke-miterlimit="10" width="127.56" height="27.495"/>
		
			<rect x="1221.265" y="492.901" fill="none" stroke="#010202" stroke-width="2" stroke-linecap="round" stroke-linejoin="round" stroke-miterlimit="10" width="127.559" height="27.495"/>
		
			<rect x="1444.295" y="492.901" fill="none" stroke="#010202" stroke-width="2" stroke-linecap="round" stroke-linejoin="round" stroke-miterlimit="10" width="127.559" height="27.495"/>
		
			<rect x="1667.324" y="492.901" fill="none" stroke="#010202" stroke-width="2" stroke-linecap="round" stroke-linejoin="round" stroke-miterlimit="10" width="127.559" height="27.495"/>
	</g>
</g>
<g>
	<path fill="none" stroke="#010202" stroke-width="2" stroke-linecap="round" stroke-linejoin="round" stroke-miterlimit="10" d="
		M2379.791,668.71c0-8.183-6.634-14.816-14.816-14.816c-6.535-0.055-13.111-0.097-19.742-0.115
		c-6.598,0.137-12.039-5.209-12.121-11.881c-0.033-6.635,5.314-12.076,11.881-12.24c0.121,0.107,0.156,0.107,0.119,0
		c6.52,0.051,12.969,0.086,19.32,0.121c0.227,0.09,0.359,0.092,0.48,0c7.838,0.021,14.127-6.379,14.039-14.281v-1.439
		c-0.023-3.447-2.861-6.262-6.359-6.359H1006.031c-10.341,0.098-19.983,5.713-25.2,14.76l-14.16,24.959
		c-3.018,5.891-10.303,8.152-16.199,5.041c-5.879-3.084-8.142-10.369-5.16-16.32c0.173-0.043,0.231-0.148,0.24-0.359
		c3.341-6.566,6.678-13.213,9.96-19.92c0.506-0.705,0.716-1.578,0.6-2.521c0.116-3.035-2.39-5.541-5.521-5.639h-191.04
		c-0.156,0.001-0.311,0.023-0.463,0.055v-0.055H308.351c-30.017,0-54.351,24.334-54.351,54.351V727.1
		c0,30.017,24.334,54.351,54.351,54.351h450.737v-0.055c0.153,0.031,0.307,0.054,0.463,0.055h191.04
		c3.131-0.098,5.637-2.604,5.521-5.639c0.116-0.943-0.094-1.816-0.6-2.521c-3.282-6.707-6.619-13.354-9.96-19.92
		c-0.009-0.211-0.067-0.316-0.24-0.359c-2.981-5.951-0.719-13.236,5.16-16.32c5.896-3.111,13.182-0.85,16.199,5.041l14.16,24.959
		c5.217,9.047,14.859,14.662,25.2,14.76h1366.561c3.498-0.098,6.336-2.912,6.359-6.359v-1.439
		c0.088-7.902-6.201-14.303-14.039-14.281c-0.121-0.092-0.254-0.09-0.48,0c-6.352,0.035-12.801,0.07-19.32,0.121
		c0.037-0.107,0.002-0.107-0.119,0c-6.566-0.164-11.914-5.605-11.881-12.24c0.082-6.672,5.523-12.018,12.121-11.881
		c6.631-0.019,13.207-0.061,19.742-0.115c8.183,0,14.816-6.633,14.816-14.816V668.71z"/>
	<g>
		
			<rect x="1883.266" y="680.827" fill="none" stroke="#010202" stroke-width="2" stroke-linecap="round" stroke-linejoin="round" stroke-miterlimit="10" width="141.732" height="27.495"/>
		
			<rect x="2106.297" y="680.827" fill="none" stroke="#010202" stroke-width="2" stroke-linecap="round" stroke-linejoin="round" stroke-miterlimit="10" width="141.732" height="27.495"/>
		
			<rect x="322.058" y="680.827" fill="none" stroke="#010202" stroke-width="2" stroke-linecap="round" stroke-linejoin="round" stroke-miterlimit="10" width="141.732" height="27.495"/>
		
			<rect x="545.088" y="680.827" fill="none" stroke="#010202" stroke-width="2" stroke-linecap="round" stroke-linejoin="round" stroke-miterlimit="10" width="141.732" height="27.495"/>
		
			<rect x="768.118" y="680.827" fill="none" stroke="#010202" stroke-width="2" stroke-linecap="round" stroke-linejoin="round" stroke-miterlimit="10" width="141.732" height="27.495"/>
		
			<rect x="991.148" y="680.827" fill="none" stroke="#010202" stroke-width="2" stroke-linecap="round" stroke-linejoin="round" stroke-miterlimit="10" width="141.732" height="27.495"/>
		
			<rect x="1214.178" y="680.827" fill="none" stroke="#010202" stroke-width="2" stroke-linecap="round" stroke-linejoin="round" stroke-miterlimit="10" width="141.732" height="27.495"/>
		
			<rect x="1424.452" y="680.827" fill="none" stroke="#010202" stroke-width="2" stroke-linecap="round" stroke-linejoin="round" stroke-miterlimit="10" width="167.244" height="27.495"/>
		
			<rect x="1660.237" y="680.827" fill="none" stroke="#010202" stroke-width="2" stroke-linecap="round" stroke-linejoin="round" stroke-miterlimit="10" width="141.732" height="27.495"/>
	</g>
</g>
<g>
	<path fill="none" stroke="#010202" stroke-width="2" stroke-linecap="round" stroke-linejoin="round" stroke-miterlimit="10" d="
		M2379.791,856.636c0-8.183-6.634-14.816-14.816-14.816c-6.535-0.055-13.111-0.097-19.742-0.115
		c-6.598,0.137-12.039-5.209-12.121-11.881c-0.033-6.635,5.314-12.076,11.881-12.24c0.121,0.107,0.156,0.107,0.119,0
		c6.52,0.051,12.969,0.086,19.32,0.121c0.227,0.09,0.359,0.092,0.48,0c7.838,0.021,14.127-6.379,14.039-14.281v-1.439
		c-0.023-3.447-2.861-6.262-6.359-6.359H1006.031c-10.341,0.098-19.983,5.713-25.2,14.76l-14.16,24.959
		c-3.018,5.891-10.303,8.152-16.199,5.041c-5.879-3.084-8.142-10.369-5.16-16.32c0.173-0.043,0.231-0.148,0.24-0.359
		c3.341-6.566,6.678-13.213,9.96-19.92c0.506-0.705,0.716-1.578,0.6-2.521c0.116-3.035-2.39-5.541-5.521-5.639h-191.04
		c-0.156,0.001-0.311,0.023-0.463,0.056v-0.056H308.351c-30.017,0-54.351,24.334-54.351,54.352v65.05
		c0,30.018,24.334,54.352,54.351,54.352h450.737v-0.055c0.153,0.031,0.307,0.054,0.463,0.055h191.04
		c3.131-0.098,5.637-2.604,5.521-5.639c0.116-0.943-0.094-1.816-0.6-2.521c-3.282-6.707-6.619-13.354-9.96-19.92
		c-0.009-0.211-0.067-0.316-0.24-0.359c-2.981-5.951-0.719-13.236,5.16-16.32c5.896-3.111,13.182-0.85,16.199,5.041l14.16,24.959
		c5.217,9.047,14.859,14.662,25.2,14.76h1366.561c3.498-0.098,6.336-2.912,6.359-6.359v-1.439
		c0.088-7.902-6.201-14.303-14.039-14.281c-0.121-0.092-0.254-0.09-0.48,0c-6.352,0.035-12.801,0.07-19.32,0.121
		c0.037-0.107,0.002-0.107-0.119,0c-6.566-0.164-11.914-5.605-11.881-12.24c0.082-6.672,5.523-12.018,12.121-11.881
		c6.631-0.019,13.207-0.061,19.742-0.115c8.183,0,14.816-6.634,14.816-14.816V856.636z"/>
	<g>
		
			<rect x="1883.266" y="868.753" fill="none" stroke="#010202" stroke-width="2" stroke-linecap="round" stroke-linejoin="round" stroke-miterlimit="10" width="141.732" height="27.495"/>
		
			<rect x="2106.297" y="868.753" fill="none" stroke="#010202" stroke-width="2" stroke-linecap="round" stroke-linejoin="round" stroke-miterlimit="10" width="141.732" height="27.495"/>
		
			<rect x="322.058" y="868.753" fill="none" stroke="#010202" stroke-width="2" stroke-linecap="round" stroke-linejoin="round" stroke-miterlimit="10" width="141.732" height="27.495"/>
		
			<rect x="545.088" y="868.753" fill="none" stroke="#010202" stroke-width="2" stroke-linecap="round" stroke-linejoin="round" stroke-miterlimit="10" width="141.732" height="27.495"/>
		
			<rect x="768.118" y="868.753" fill="none" stroke="#010202" stroke-width="2" stroke-linecap="round" stroke-linejoin="round" stroke-miterlimit="10" width="141.732" height="27.495"/>
		
			<rect x="991.148" y="868.753" fill="none" stroke="#010202" stroke-width="2" stroke-linecap="round" stroke-linejoin="round" stroke-miterlimit="10" width="141.732" height="27.495"/>
		
			<rect x="1214.178" y="868.753" fill="none" stroke="#010202" stroke-width="2" stroke-linecap="round" stroke-linejoin="round" stroke-miterlimit="10" width="141.732" height="27.495"/>
		
			<rect x="1424.452" y="868.753" fill="none" stroke="#010202" stroke-width="2" stroke-linecap="round" stroke-linejoin="round" stroke-miterlimit="10" width="167.244" height="27.495"/>
		
			<rect x="1660.237" y="868.753" fill="none" stroke="#010202" stroke-width="2" stroke-linecap="round" stroke-linejoin="round" stroke-miterlimit="10" width="141.732" height="27.495"/>
	</g>
</g>
<polygon fill="none" stroke="#010202" stroke-width="2" stroke-linecap="round" stroke-linejoin="round" stroke-miterlimit="10" points="
	2631.719,1030.442 2617.545,1030.442 2617.545,817.844 2610.458,817.844 2610.458,605.245 2603.371,605.245 2603.371,548.552 
	2489.986,548.552 2489.986,605.245 2482.899,605.245 2482.899,817.844 2475.813,817.844 2475.813,1030.442 2461.64,1030.442 
	2461.64,1313.907 2475.813,1313.907 2475.813,1526.505 2482.899,1526.505 2482.899,1739.104 2489.986,1739.104 2489.986,1795.798 
	2603.371,1795.798 2603.371,1739.104 2610.458,1739.104 2610.458,1526.505 2617.545,1526.505 2617.545,1313.907 2631.719,1313.907 
	"/>
<polygon fill="none" stroke="#010202" stroke-width="2" stroke-linecap="round" stroke-linejoin="round" stroke-miterlimit="10" points="
	2971.877,1030.441 2957.703,1030.441 2957.703,817.843 2950.615,817.843 2950.615,605.244 2943.529,605.244 2943.529,548.551 
	2830.145,548.551 2830.145,605.244 2823.057,605.244 2823.057,817.843 2815.971,817.843 2815.971,1030.441 2801.797,1030.441 
	2801.797,1313.906 2815.971,1313.906 2815.971,1526.504 2823.057,1526.504 2823.057,1739.104 2830.145,1739.104 2830.145,1795.797 
	2943.529,1795.797 2943.529,1739.104 2950.615,1739.104 2950.615,1526.504 2957.703,1526.504 2957.703,1313.906 2971.877,1313.906 
	"/>
<polygon fill="none" stroke="#010202" stroke-width="2" stroke-linecap="round" stroke-linejoin="round" stroke-miterlimit="10" points="
	3312.034,1030.441 3297.86,1030.441 3297.86,817.843 3290.773,817.843 3290.773,605.244 3283.687,605.244 3283.687,548.551 
	3170.302,548.551 3170.302,605.244 3163.215,605.244 3163.215,817.843 3156.128,817.843 3156.128,1030.441 3141.955,1030.441 
	3141.955,1313.906 3156.128,1313.906 3156.128,1526.504 3163.215,1526.504 3163.215,1739.104 3170.302,1739.104 3170.302,1795.797 
	3283.687,1795.797 3283.687,1739.104 3290.773,1739.104 3290.773,1526.504 3297.86,1526.504 3297.86,1313.906 3312.034,1313.906 "/>
<polygon fill="none" stroke="#010202" stroke-width="2" stroke-linecap="round" stroke-linejoin="round" stroke-miterlimit="10" points="
	2799.686,670.514 2785.512,670.514 2785.512,457.916 2778.425,457.916 2778.425,245.317 2771.338,245.317 2771.338,188.624 
	2657.953,188.624 2657.953,245.317 2650.866,245.317 2650.866,457.916 2643.779,457.916 2643.779,670.514 2629.606,670.514 
	2629.606,953.979 2643.779,953.979 2643.779,1166.576 2650.866,1166.576 2650.866,1379.176 2657.953,1379.176 2657.953,1435.869 
	2771.338,1435.869 2771.338,1379.176 2778.425,1379.176 2778.425,1166.576 2785.512,1166.576 2785.512,953.979 2799.686,953.979 "/>
<polygon fill="none" stroke="#010202" stroke-width="2" stroke-linecap="round" stroke-linejoin="round" stroke-miterlimit="10" points="
	3139.844,670.513 3125.67,670.513 3125.67,457.915 3118.582,457.915 3118.582,245.316 3111.496,245.316 3111.496,188.623 
	2998.111,188.623 2998.111,245.316 2991.023,245.316 2991.023,457.915 2983.938,457.915 2983.938,670.513 2969.764,670.513 
	2969.764,953.978 2983.938,953.978 2983.938,1166.576 2991.023,1166.576 2991.023,1379.176 2998.111,1379.176 2998.111,1435.869 
	3111.496,1435.869 3111.496,1379.176 3118.582,1379.176 3118.582,1166.576 3125.67,1166.576 3125.67,953.978 3139.844,953.978 "/>
<polygon fill="none" stroke="#010202" stroke-width="2" stroke-linecap="round" stroke-linejoin="round" stroke-miterlimit="10" points="
	3480.001,670.513 3465.827,670.513 3465.827,457.915 3458.74,457.915 3458.74,245.316 3451.653,245.316 3451.653,188.623 
	3338.269,188.623 3338.269,245.316 3331.182,245.316 3331.182,457.915 3324.095,457.915 3324.095,670.513 3309.922,670.513 
	3309.922,953.978 3324.095,953.978 3324.095,1166.576 3331.182,1166.576 3331.182,1379.176 3338.269,1379.176 3338.269,1435.869 
	3451.653,1435.869 3451.653,1379.176 3458.74,1379.176 3458.74,1166.576 3465.827,1166.576 3465.827,953.978 3480.001,953.978 "/>
<polygon fill="none" stroke="#010202" stroke-width="2" stroke-linecap="round" stroke-linejoin="round" stroke-miterlimit="10" points="
	3674.83,937.164 3689.004,937.164 3689.004,1149.762 3696.091,1149.762 3696.091,1362.36 3703.178,1362.36 3703.178,1419.054 
	3816.563,1419.054 3816.563,1362.36 3823.649,1362.36 3823.649,1149.762 3830.736,1149.762 3830.736,937.164 3844.909,937.164 
	3844.909,653.699 3830.736,653.699 3830.736,441.101 3823.649,441.101 3823.649,228.501 3816.563,228.501 3816.563,171.808 
	3703.178,171.808 3703.178,228.501 3696.091,228.501 3696.091,441.101 3689.004,441.101 3689.004,653.699 3674.83,653.699 "/>
<polygon fill="none" stroke="#010202" stroke-width="2" stroke-linecap="round" stroke-linejoin="round" stroke-miterlimit="10" points="
	3847.021,1297.092 3861.194,1297.092 3861.194,1509.69 3868.282,1509.69 3868.282,1722.289 3875.368,1722.289 3875.368,1778.982 
	3988.753,1778.982 3988.753,1722.289 3995.841,1722.289 3995.841,1509.69 4002.927,1509.69 4002.927,1297.092 4017.101,1297.092 
	4017.101,1013.627 4002.927,1013.627 4002.927,801.029 3995.841,801.029 3995.841,588.429 3988.753,588.429 3988.753,531.736 
	3875.368,531.736 3875.368,588.429 3868.282,588.429 3868.282,801.029 3861.194,801.029 3861.194,1013.627 3847.021,1013.627 "/>
<polygon fill="none" stroke="#010202" stroke-width="2" stroke-linecap="round" stroke-linejoin="round" stroke-miterlimit="10" points="
	3506.863,1297.092 3521.037,1297.092 3521.037,1509.69 3528.124,1509.69 3528.124,1722.289 3535.211,1722.289 3535.211,1778.982 
	3648.596,1778.982 3648.596,1722.289 3655.683,1722.289 3655.683,1509.69 3662.77,1509.69 3662.77,1297.092 3676.942,1297.092 
	3676.942,1013.627 3662.77,1013.627 3662.77,801.029 3655.683,801.029 3655.683,588.429 3648.596,588.429 3648.596,531.736 
	3535.211,531.736 3535.211,588.429 3528.124,588.429 3528.124,801.029 3521.037,801.029 3521.037,1013.627 3506.863,1013.627 "/>
<g>
	<g>
		
			<rect x="1897.955" y="1279.229" fill="none" stroke="#010202" stroke-width="2" stroke-linecap="round" stroke-linejoin="round" stroke-miterlimit="10" width="113.387" height="27.495"/>
		
			<rect x="2120.986" y="1279.229" fill="none" stroke="#010202" stroke-width="2" stroke-linecap="round" stroke-linejoin="round" stroke-miterlimit="10" width="113.385" height="27.495"/>
		
			<rect x="336.747" y="1279.229" fill="none" stroke="#010202" stroke-width="2" stroke-linecap="round" stroke-linejoin="round" stroke-miterlimit="10" width="113.386" height="27.495"/>
		
			<rect x="559.777" y="1279.229" fill="none" stroke="#010202" stroke-width="2" stroke-linecap="round" stroke-linejoin="round" stroke-miterlimit="10" width="113.386" height="27.495"/>
		
			<rect x="782.806" y="1279.229" fill="none" stroke="#010202" stroke-width="2" stroke-linecap="round" stroke-linejoin="round" stroke-miterlimit="10" width="113.386" height="27.495"/>
		
			<rect x="1005.836" y="1279.229" fill="none" stroke="#010202" stroke-width="2" stroke-linecap="round" stroke-linejoin="round" stroke-miterlimit="10" width="113.386" height="27.495"/>
		
			<rect x="1228.867" y="1279.229" fill="none" stroke="#010202" stroke-width="2" stroke-linecap="round" stroke-linejoin="round" stroke-miterlimit="10" width="113.386" height="27.495"/>
		
			<rect x="1451.896" y="1279.229" fill="none" stroke="#010202" stroke-width="2" stroke-linecap="round" stroke-linejoin="round" stroke-miterlimit="10" width="113.387" height="27.495"/>
		
			<rect x="1674.926" y="1279.229" fill="none" stroke="#010202" stroke-width="2" stroke-linecap="round" stroke-linejoin="round" stroke-miterlimit="10" width="113.387" height="27.495"/>
	</g>
	<path fill="none" stroke="#010202" stroke-width="2" stroke-linecap="round" stroke-linejoin="round" stroke-miterlimit="10" d="
		M2379.984,1284.293c0,53.08-43.029,96.109-96.109,96.109H350.109c-53.08,0-96.109-43.029-96.109-96.109V1079.66
		c0-53.08,43.029-96.109,96.109-96.109h1933.766c53.08,0,96.109,43.029,96.109,96.109V1284.293z"/>
	<g>
		<path fill="none" stroke="#010202" stroke-width="2" stroke-linecap="round" stroke-linejoin="round" stroke-miterlimit="10" d="
			M673.163,1197.249H616.47H450.132h-34.634h-67.939c-5.972,0-10.813,4.841-10.813,10.813v5.871c0,5.972,4.841,10.813,10.813,10.813
			h67.939h34.634H616.47h56.693h212.217c5.972,0,10.813-4.841,10.813-10.813v-5.871c0-5.972-4.841-10.813-10.813-10.813H673.163z"/>
		<path fill="none" stroke="#010202" stroke-width="2" stroke-linecap="round" stroke-linejoin="round" stroke-miterlimit="10" d="
			M1342.229,1197.249h-56.692h-166.337h-34.634h-67.939c-5.972,0-10.813,4.841-10.813,10.813v5.871
			c0,5.972,4.841,10.813,10.813,10.813h67.939h34.634h166.337h56.692h212.217c5.972,0,10.813-4.841,10.813-10.813v-5.871
			c0-5.972-4.841-10.813-10.813-10.813H1342.229z"/>
		<path fill="none" stroke="#010202" stroke-width="2" stroke-linecap="round" stroke-linejoin="round" stroke-miterlimit="10" d="
			M2011.297,1197.249h-56.692h-166.338h-34.633h-67.939c-5.972,0-10.813,4.841-10.813,10.813v5.871
			c0,5.972,4.841,10.813,10.813,10.813h67.939h34.633h166.338h56.692h212.217c5.972,0,10.813-4.841,10.813-10.813v-5.871
			c0-5.972-4.841-10.813-10.813-10.813H2011.297z"/>
	</g>
	<g>
		<path fill="none" stroke="#010202" stroke-width="2" stroke-linecap="round" stroke-linejoin="round" stroke-miterlimit="10" d="
			M673.163,1118.729H616.47H450.132h-34.634h-67.939c-5.972,0-10.813,4.841-10.813,10.813v5.871c0,5.972,4.841,10.813,10.813,10.813
			h67.939h34.634H616.47h56.693h212.217c5.972,0,10.813-4.841,10.813-10.813v-5.871c0-5.972-4.841-10.813-10.813-10.813H673.163z"/>
		<path fill="none" stroke="#010202" stroke-width="2" stroke-linecap="round" stroke-linejoin="round" stroke-miterlimit="10" d="
			M1342.229,1118.729h-56.692h-166.337h-34.634h-67.939c-5.972,0-10.813,4.841-10.813,10.813v5.871
			c0,5.972,4.841,10.813,10.813,10.813h67.939h34.634h166.337h56.692h212.217c5.972,0,10.813-4.841,10.813-10.813v-5.871
			c0-5.972-4.841-10.813-10.813-10.813H1342.229z"/>
		<path fill="none" stroke="#010202" stroke-width="2" stroke-linecap="round" stroke-linejoin="round" stroke-miterlimit="10" d="
			M2011.297,1118.729h-56.692h-166.338h-34.633h-67.939c-5.972,0-10.813,4.841-10.813,10.813v5.871
			c0,5.972,4.841,10.813,10.813,10.813h67.939h34.633h166.338h56.692h212.217c5.972,0,10.813-4.841,10.813-10.813v-5.871
			c0-5.972-4.841-10.813-10.813-10.813H2011.297z"/>
	</g>
	<g>
		<path fill="none" stroke="#010202" stroke-width="2" stroke-linecap="round" stroke-linejoin="round" stroke-miterlimit="10" d="
			M673.163,1040.209H616.47H450.132h-34.634h-67.939c-5.972,0-10.813,4.841-10.813,10.813v5.871c0,5.972,4.841,10.813,10.813,10.813
			h67.939h34.634H616.47h56.693h212.217c5.972,0,10.813-4.841,10.813-10.813v-5.871c0-5.972-4.841-10.813-10.813-10.813H673.163z"/>
		<path fill="none" stroke="#010202" stroke-width="2" stroke-linecap="round" stroke-linejoin="round" stroke-miterlimit="10" d="
			M1342.229,1040.209h-56.692h-166.337h-34.634h-67.939c-5.972,0-10.813,4.841-10.813,10.813v5.871
			c0,5.972,4.841,10.813,10.813,10.813h67.939h34.634h166.337h56.692h212.217c5.972,0,10.813-4.841,10.813-10.813v-5.871
			c0-5.972-4.841-10.813-10.813-10.813H1342.229z"/>
		<path fill="none" stroke="#010202" stroke-width="2" stroke-linecap="round" stroke-linejoin="round" stroke-miterlimit="10" d="
			M2011.297,1040.209h-56.692h-166.338h-34.633h-67.939c-5.972,0-10.813,4.841-10.813,10.813v5.871
			c0,5.972,4.841,10.813,10.813,10.813h67.939h34.633h166.338h56.692h212.217c5.972,0,10.813-4.841,10.813-10.813v-5.871
			c0-5.972-4.841-10.813-10.813-10.813H2011.297z"/>
	</g>
</g>
<g>
	<g>
		
			<rect x="1897.955" y="1690.254" fill="none" stroke="#010202" stroke-width="2" stroke-linecap="round" stroke-linejoin="round" stroke-miterlimit="10" width="113.387" height="27.495"/>
		
			<rect x="2120.986" y="1690.254" fill="none" stroke="#010202" stroke-width="2" stroke-linecap="round" stroke-linejoin="round" stroke-miterlimit="10" width="113.385" height="27.495"/>
		
			<rect x="336.747" y="1690.254" fill="none" stroke="#010202" stroke-width="2" stroke-linecap="round" stroke-linejoin="round" stroke-miterlimit="10" width="113.386" height="27.495"/>
		
			<rect x="559.777" y="1690.254" fill="none" stroke="#010202" stroke-width="2" stroke-linecap="round" stroke-linejoin="round" stroke-miterlimit="10" width="113.386" height="27.495"/>
		
			<rect x="782.807" y="1690.254" fill="none" stroke="#010202" stroke-width="2" stroke-linecap="round" stroke-linejoin="round" stroke-miterlimit="10" width="113.386" height="27.495"/>
		
			<rect x="1005.837" y="1690.254" fill="none" stroke="#010202" stroke-width="2" stroke-linecap="round" stroke-linejoin="round" stroke-miterlimit="10" width="113.386" height="27.495"/>
		
			<rect x="1228.867" y="1690.254" fill="none" stroke="#010202" stroke-width="2" stroke-linecap="round" stroke-linejoin="round" stroke-miterlimit="10" width="113.386" height="27.495"/>
		
			<rect x="1451.896" y="1690.254" fill="none" stroke="#010202" stroke-width="2" stroke-linecap="round" stroke-linejoin="round" stroke-miterlimit="10" width="113.387" height="27.495"/>
		
			<rect x="1674.926" y="1690.254" fill="none" stroke="#010202" stroke-width="2" stroke-linecap="round" stroke-linejoin="round" stroke-miterlimit="10" width="113.387" height="27.495"/>
	</g>
	<path fill="none" stroke="#010202" stroke-width="2" stroke-linecap="round" stroke-linejoin="round" stroke-miterlimit="10" d="
		M2379.984,1695.318c0,53.079-43.029,96.108-96.109,96.108H350.109c-53.08,0-96.109-43.029-96.109-96.108v-204.635
		c0-53.079,43.029-96.108,96.109-96.108h1933.766c53.08,0,96.109,43.029,96.109,96.108V1695.318z"/>
	<g>
		<path fill="none" stroke="#010202" stroke-width="2" stroke-linecap="round" stroke-linejoin="round" stroke-miterlimit="10" d="
			M673.163,1608.274H616.47H450.133h-34.634H347.56c-5.972,0-10.813,4.841-10.813,10.813v5.871c0,5.972,4.841,10.813,10.813,10.813
			h67.939h34.634H616.47h56.693H885.38c5.972,0,10.813-4.841,10.813-10.813v-5.871c0-5.972-4.841-10.813-10.813-10.813H673.163z"/>
		<path fill="none" stroke="#010202" stroke-width="2" stroke-linecap="round" stroke-linejoin="round" stroke-miterlimit="10" d="
			M1342.229,1608.274h-56.692H1119.2h-34.634h-67.939c-5.972,0-10.813,4.841-10.813,10.813v5.871
			c0,5.972,4.841,10.813,10.813,10.813h67.939h34.634h166.337h56.692h212.217c5.972,0,10.813-4.841,10.813-10.813v-5.871
			c0-5.972-4.841-10.813-10.813-10.813H1342.229z"/>
		<path fill="none" stroke="#010202" stroke-width="2" stroke-linecap="round" stroke-linejoin="round" stroke-miterlimit="10" d="
			M2011.297,1608.274h-56.692h-166.338h-34.633h-67.939c-5.972,0-10.813,4.841-10.813,10.813v5.871
			c0,5.972,4.841,10.813,10.813,10.813h67.939h34.633h166.338h56.692h212.217c5.972,0,10.813-4.841,10.813-10.813v-5.871
			c0-5.972-4.841-10.813-10.813-10.813H2011.297z"/>
	</g>
	<g>
		<path fill="none" stroke="#010202" stroke-width="2" stroke-linecap="round" stroke-linejoin="round" stroke-miterlimit="10" d="
			M673.163,1529.755H616.47H450.133h-34.634H347.56c-5.972,0-10.813,4.841-10.813,10.813v5.871c0,5.972,4.841,10.813,10.813,10.813
			h67.939h34.634H616.47h56.693H885.38c5.972,0,10.813-4.841,10.813-10.813v-5.871c0-5.972-4.841-10.813-10.813-10.813H673.163z"/>
		<path fill="none" stroke="#010202" stroke-width="2" stroke-linecap="round" stroke-linejoin="round" stroke-miterlimit="10" d="
			M1342.229,1529.755h-56.692H1119.2h-34.634h-67.939c-5.972,0-10.813,4.841-10.813,10.813v5.871
			c0,5.972,4.841,10.813,10.813,10.813h67.939h34.634h166.337h56.692h212.217c5.972,0,10.813-4.841,10.813-10.813v-5.871
			c0-5.972-4.841-10.813-10.813-10.813H1342.229z"/>
		<path fill="none" stroke="#010202" stroke-width="2" stroke-linecap="round" stroke-linejoin="round" stroke-miterlimit="10" d="
			M2011.297,1529.755h-56.692h-166.338h-34.633h-67.939c-5.972,0-10.813,4.841-10.813,10.813v5.871
			c0,5.972,4.841,10.813,10.813,10.813h67.939h34.633h166.338h56.692h212.217c5.972,0,10.813-4.841,10.813-10.813v-5.871
			c0-5.972-4.841-10.813-10.813-10.813H2011.297z"/>
	</g>
	<g>
		<path fill="none" stroke="#010202" stroke-width="2" stroke-linecap="round" stroke-linejoin="round" stroke-miterlimit="10" d="
			M673.163,1451.235H616.47H450.133h-34.634H347.56c-5.972,0-10.813,4.841-10.813,10.813v5.871c0,5.972,4.841,10.813,10.813,10.813
			h67.939h34.634H616.47h56.693H885.38c5.972,0,10.813-4.841,10.813-10.813v-5.871c0-5.972-4.841-10.813-10.813-10.813H673.163z"/>
		<path fill="none" stroke="#010202" stroke-width="2" stroke-linecap="round" stroke-linejoin="round" stroke-miterlimit="10" d="
			M1342.229,1451.235h-56.692H1119.2h-34.634h-67.939c-5.972,0-10.813,4.841-10.813,10.813v5.871
			c0,5.972,4.841,10.813,10.813,10.813h67.939h34.634h166.337h56.692h212.217c5.972,0,10.813-4.841,10.813-10.813v-5.871
			c0-5.972-4.841-10.813-10.813-10.813H1342.229z"/>
		<path fill="none" stroke="#010202" stroke-width="2" stroke-linecap="round" stroke-linejoin="round" stroke-miterlimit="10" d="
			M2011.297,1451.235h-56.692h-166.338h-34.633h-67.939c-5.972,0-10.813,4.841-10.813,10.813v5.871
			c0,5.972,4.841,10.813,10.813,10.813h67.939h34.633h166.338h56.692h212.217c5.972,0,10.813-4.841,10.813-10.813v-5.871
			c0-5.972-4.841-10.813-10.813-10.813H2011.297z"/>
	</g>
</g>
</svg>
